<mxfile host="app.diagrams.net" modified="2022-04-28T15:04:08.851Z" agent="5.0 (Windows NT 10.0; Win64; x64) AppleWebKit/537.36 (KHTML, like Gecko) Chrome/100.0.4896.127 Safari/537.36 Edg/100.0.1185.50" etag="qfSAUBhnIuI3KEk6SRkv" version="17.4.6" type="github">
  <diagram name="Page-1" id="bfe91b75-5d2c-26a0-9c1d-138518896778">
    <mxGraphModel dx="3629" dy="1219" grid="0" gridSize="10" guides="1" tooltips="1" connect="1" arrows="1" fold="1" page="0" pageScale="1" pageWidth="1100" pageHeight="850" background="none" math="0" shadow="0">
      <root>
        <mxCell id="0" />
        <mxCell id="1" parent="0" />
        <mxCell id="LizpNqH5XbW1a9Z3ppsu-50" value="&lt;font color=&quot;#000000&quot;&gt;Cloud&lt;br&gt;CDN&lt;/font&gt;" style="sketch=0;html=1;fillColor=#007FFF;strokeColor=none;verticalAlign=top;labelPosition=center;verticalLabelPosition=bottom;align=center;spacingTop=-6;fontSize=11;fontStyle=1;fontColor=#999999;shape=mxgraph.gcp2.hexIcon;prIcon=cloud_cdn;rounded=1;shadow=0;labelBackgroundColor=default;labelBorderColor=none;" vertex="1" parent="1">
          <mxGeometry x="824.25" y="75.86" width="66" height="58.5" as="geometry" />
        </mxCell>
        <mxCell id="LizpNqH5XbW1a9Z3ppsu-58" value="" style="rounded=1;arcSize=10;dashed=1;strokeColor=#3399FF;fillColor=none;strokeWidth=2;" vertex="1" parent="1">
          <mxGeometry x="120" y="38" width="224.87" height="280" as="geometry" />
        </mxCell>
        <mxCell id="JEiJStZFtpuKIrxnZZQP-1" value="" style="rounded=1;arcSize=10;dashed=1;strokeColor=#3399FF;fillColor=none;strokeWidth=2;" parent="1" vertex="1">
          <mxGeometry x="365.13" y="40" width="354.87" height="280" as="geometry" />
        </mxCell>
        <mxCell id="LizpNqH5XbW1a9Z3ppsu-34" value="" style="rounded=1;arcSize=10;dashed=1;strokeColor=#3399FF;fillColor=none;strokeWidth=2;fontStyle=1;labelBackgroundColor=default;" vertex="1" parent="1">
          <mxGeometry x="760" y="37" width="380" height="282" as="geometry" />
        </mxCell>
        <mxCell id="LizpNqH5XbW1a9Z3ppsu-41" value="" style="rounded=1;arcSize=10;dashed=1;strokeColor=#666666;fillColor=#f5f5f5;dashPattern=8 4;strokeWidth=1;rotation=-90;" vertex="1" parent="1">
          <mxGeometry x="903" y="-127.38" width="84.75" height="167.38" as="geometry" />
        </mxCell>
        <mxCell id="JEiJStZFtpuKIrxnZZQP-120" value="" style="rounded=1;arcSize=10;dashed=1;strokeColor=#3399FF;fillColor=none;strokeWidth=2;" parent="1" vertex="1">
          <mxGeometry x="370" y="421" width="510" height="359" as="geometry" />
        </mxCell>
        <mxCell id="JEiJStZFtpuKIrxnZZQP-115" style="edgeStyle=orthogonalEdgeStyle;rounded=0;orthogonalLoop=1;jettySize=auto;html=1;entryX=0.51;entryY=0;entryDx=0;entryDy=0;entryPerimeter=0;fontColor=#000000;" parent="1" source="JEiJStZFtpuKIrxnZZQP-105" target="JEiJStZFtpuKIrxnZZQP-114" edge="1">
          <mxGeometry relative="1" as="geometry" />
        </mxCell>
        <mxCell id="JEiJStZFtpuKIrxnZZQP-117" value="HTTP" style="edgeLabel;html=1;align=center;verticalAlign=middle;resizable=0;points=[];fontColor=#000000;fontStyle=1" parent="JEiJStZFtpuKIrxnZZQP-115" vertex="1" connectable="0">
          <mxGeometry x="0.1466" relative="1" as="geometry">
            <mxPoint as="offset" />
          </mxGeometry>
        </mxCell>
        <mxCell id="JEiJStZFtpuKIrxnZZQP-143" style="edgeStyle=orthogonalEdgeStyle;rounded=0;orthogonalLoop=1;jettySize=auto;html=1;exitX=0;exitY=0.5;exitDx=0;exitDy=0;fontColor=#000000;" parent="1" source="JEiJStZFtpuKIrxnZZQP-14" target="JEiJStZFtpuKIrxnZZQP-105" edge="1">
          <mxGeometry relative="1" as="geometry">
            <Array as="points">
              <mxPoint x="548" y="60" />
              <mxPoint x="634" y="60" />
            </Array>
          </mxGeometry>
        </mxCell>
        <mxCell id="JEiJStZFtpuKIrxnZZQP-144" value="HTTPS" style="edgeLabel;html=1;align=center;verticalAlign=middle;resizable=0;points=[];fontColor=#000000;fontStyle=1" parent="JEiJStZFtpuKIrxnZZQP-143" vertex="1" connectable="0">
          <mxGeometry x="0.4486" y="-2" relative="1" as="geometry">
            <mxPoint x="-28" y="-2" as="offset" />
          </mxGeometry>
        </mxCell>
        <mxCell id="LizpNqH5XbW1a9Z3ppsu-64" style="edgeStyle=orthogonalEdgeStyle;rounded=0;orthogonalLoop=1;jettySize=auto;html=1;exitX=0;exitY=0.5;exitDx=0;exitDy=0;fontColor=#000000;" edge="1" parent="1" source="JEiJStZFtpuKIrxnZZQP-14" target="LizpNqH5XbW1a9Z3ppsu-61">
          <mxGeometry relative="1" as="geometry">
            <Array as="points">
              <mxPoint x="548" y="20" />
              <mxPoint x="247" y="20" />
            </Array>
          </mxGeometry>
        </mxCell>
        <mxCell id="LizpNqH5XbW1a9Z3ppsu-71" value="HTTP" style="edgeLabel;html=1;align=center;verticalAlign=middle;resizable=0;points=[];fontColor=#000000;fontStyle=1" vertex="1" connectable="0" parent="LizpNqH5XbW1a9Z3ppsu-64">
          <mxGeometry x="-0.0251" y="-2" relative="1" as="geometry">
            <mxPoint as="offset" />
          </mxGeometry>
        </mxCell>
        <mxCell id="JEiJStZFtpuKIrxnZZQP-14" value="" style="rounded=1;arcSize=10;dashed=1;strokeColor=#666666;fillColor=#f5f5f5;dashPattern=8 4;strokeWidth=1;rotation=-90;" parent="1" vertex="1">
          <mxGeometry x="505.25" y="-127.38" width="84.75" height="167.38" as="geometry" />
        </mxCell>
        <mxCell id="JEiJStZFtpuKIrxnZZQP-2" value="" style="rounded=1;arcSize=10;dashed=1;strokeColor=none;fillColor=#f5f5f5;dashPattern=8 4;strokeWidth=2;rotation=0;" parent="1" vertex="1">
          <mxGeometry x="-535" y="633" width="110" height="59" as="geometry" />
        </mxCell>
        <mxCell id="JEiJStZFtpuKIrxnZZQP-3" value="" style="rounded=1;arcSize=10;dashed=1;strokeColor=#3399FF;fillColor=none;strokeWidth=2;" parent="1" vertex="1">
          <mxGeometry x="920" y="423" width="220" height="160" as="geometry" />
        </mxCell>
        <mxCell id="JEiJStZFtpuKIrxnZZQP-4" value="" style="rounded=1;arcSize=10;dashed=1;strokeColor=#3399FF;fillColor=none;strokeWidth=2;rotation=-90;" parent="1" vertex="1">
          <mxGeometry x="-1250" y="190" width="221" height="386" as="geometry" />
        </mxCell>
        <mxCell id="JEiJStZFtpuKIrxnZZQP-5" value="" style="rounded=1;arcSize=10;dashed=1;strokeColor=#3399FF;fillColor=none;strokeWidth=2;" parent="1" vertex="1">
          <mxGeometry x="-450" y="293" width="90" height="150" as="geometry" />
        </mxCell>
        <mxCell id="JEiJStZFtpuKIrxnZZQP-6" value="" style="rounded=1;arcSize=10;dashed=1;strokeColor=#3399FF;fillColor=none;strokeWidth=2;" parent="1" vertex="1">
          <mxGeometry x="-894" y="276" width="220" height="204" as="geometry" />
        </mxCell>
        <mxCell id="JEiJStZFtpuKIrxnZZQP-103" value="HTTPS" style="edgeStyle=orthogonalEdgeStyle;rounded=0;orthogonalLoop=1;jettySize=auto;html=1;exitX=0;exitY=0.5;exitDx=0;exitDy=0;entryX=0.5;entryY=0.16;entryDx=0;entryDy=0;entryPerimeter=0;fontColor=#000000;fontStyle=1" parent="1" source="JEiJStZFtpuKIrxnZZQP-14" target="JEiJStZFtpuKIrxnZZQP-102" edge="1">
          <mxGeometry x="0.1603" relative="1" as="geometry">
            <Array as="points">
              <mxPoint x="548" y="60" />
              <mxPoint x="485" y="60" />
            </Array>
            <mxPoint as="offset" />
          </mxGeometry>
        </mxCell>
        <mxCell id="JEiJStZFtpuKIrxnZZQP-15" value="" style="rounded=1;arcSize=10;dashed=1;strokeColor=none;fillColor=#f5f5f5;dashPattern=8 4;strokeWidth=2;" parent="1" vertex="1">
          <mxGeometry x="-612" y="329" width="60" height="110" as="geometry" />
        </mxCell>
        <mxCell id="JEiJStZFtpuKIrxnZZQP-16" style="edgeStyle=orthogonalEdgeStyle;rounded=0;html=1;exitX=0.5;exitY=1;entryX=0.5;entryY=0;jettySize=auto;orthogonalLoop=1;strokeColor=#3399FF;strokeWidth=2;" parent="1" source="JEiJStZFtpuKIrxnZZQP-17" target="JEiJStZFtpuKIrxnZZQP-18" edge="1">
          <mxGeometry relative="1" as="geometry" />
        </mxCell>
        <mxCell id="JEiJStZFtpuKIrxnZZQP-17" value="" style="rounded=1;arcSize=10;dashed=1;strokeColor=none;fillColor=#f5f5f5;dashPattern=8 4;strokeWidth=2;rotation=-90;" parent="1" vertex="1">
          <mxGeometry x="-1290" y="352" width="200" height="66" as="geometry" />
        </mxCell>
        <mxCell id="JEiJStZFtpuKIrxnZZQP-18" value="" style="rounded=1;arcSize=10;dashed=1;strokeColor=none;fillColor=#f5f5f5;dashPattern=8 4;strokeWidth=2;rotation=-90;" parent="1" vertex="1">
          <mxGeometry x="-1132" y="340" width="170" height="89" as="geometry" />
        </mxCell>
        <mxCell id="JEiJStZFtpuKIrxnZZQP-19" value="" style="rounded=1;arcSize=10;dashed=1;strokeColor=none;fillColor=#f5f5f5;dashPattern=8 4;strokeWidth=2;rotation=-90;" parent="1" vertex="1">
          <mxGeometry x="-804" y="345" width="170" height="76" as="geometry" />
        </mxCell>
        <mxCell id="JEiJStZFtpuKIrxnZZQP-20" value="" style="rounded=1;arcSize=10;dashed=1;strokeColor=none;fillColor=#f5f5f5;dashPattern=8 4;strokeWidth=2;rotation=-90;" parent="1" vertex="1">
          <mxGeometry x="1000" y="477" width="120" height="72" as="geometry" />
        </mxCell>
        <mxCell id="JEiJStZFtpuKIrxnZZQP-21" value="" style="rounded=1;arcSize=10;dashed=1;strokeColor=none;fillColor=#f5f5f5;dashPattern=8 4;strokeWidth=2;rotation=-90;" parent="1" vertex="1">
          <mxGeometry x="-1094" y="610" width="200" height="67" as="geometry" />
        </mxCell>
        <mxCell id="JEiJStZFtpuKIrxnZZQP-22" style="edgeStyle=none;rounded=0;html=1;exitX=0.5;exitY=1;startArrow=none;startFill=0;endArrow=blockThin;endFill=1;jettySize=auto;orthogonalLoop=1;strokeColor=#3399FF;strokeWidth=2;fontColor=#00BEF2;" parent="1" source="JEiJStZFtpuKIrxnZZQP-23" target="JEiJStZFtpuKIrxnZZQP-25" edge="1">
          <mxGeometry relative="1" as="geometry" />
        </mxCell>
        <mxCell id="JEiJStZFtpuKIrxnZZQP-23" value="" style="rounded=1;arcSize=10;dashed=1;strokeColor=none;fillColor=#f5f5f5;dashPattern=8 4;strokeWidth=2;rotation=-90;" parent="1" vertex="1">
          <mxGeometry x="-1367" y="614" width="180" height="60" as="geometry" />
        </mxCell>
        <mxCell id="JEiJStZFtpuKIrxnZZQP-24" style="edgeStyle=none;rounded=0;html=1;exitX=0.5;exitY=1;entryX=0;entryY=0.5;entryPerimeter=0;startArrow=none;startFill=0;endArrow=blockThin;endFill=1;jettySize=auto;orthogonalLoop=1;strokeColor=#3399FF;strokeWidth=2;fontColor=#00BEF2;" parent="1" source="JEiJStZFtpuKIrxnZZQP-25" target="JEiJStZFtpuKIrxnZZQP-76" edge="1">
          <mxGeometry relative="1" as="geometry" />
        </mxCell>
        <mxCell id="JEiJStZFtpuKIrxnZZQP-25" value="" style="rounded=1;arcSize=10;dashed=1;strokeColor=none;fillColor=#f5f5f5;dashPattern=8 4;strokeWidth=2;rotation=-89;" parent="1" vertex="1">
          <mxGeometry x="-1268" y="610" width="194" height="68" as="geometry" />
        </mxCell>
        <mxCell id="JEiJStZFtpuKIrxnZZQP-158" style="edgeStyle=orthogonalEdgeStyle;rounded=0;orthogonalLoop=1;jettySize=auto;html=1;exitX=0.87;exitY=0.65;exitDx=0;exitDy=0;exitPerimeter=0;fontColor=#000000;" parent="1" source="JEiJStZFtpuKIrxnZZQP-27" target="JEiJStZFtpuKIrxnZZQP-157" edge="1">
          <mxGeometry relative="1" as="geometry" />
        </mxCell>
        <mxCell id="JEiJStZFtpuKIrxnZZQP-27" value="运维" style="verticalLabelPosition=bottom;html=1;verticalAlign=top;strokeColor=none;fillColor=#007FFF;shape=mxgraph.azure.user;fontStyle=1" parent="1" vertex="1">
          <mxGeometry x="20" y="464" width="47.5" height="50" as="geometry" />
        </mxCell>
        <mxCell id="JEiJStZFtpuKIrxnZZQP-28" value="" style="verticalLabelPosition=bottom;html=1;verticalAlign=top;strokeColor=none;fillColor=#00BEF2;shape=mxgraph.azure.azure_active_directory;" parent="1" vertex="1">
          <mxGeometry x="-1217" y="418" width="47.5" height="50" as="geometry" />
        </mxCell>
        <mxCell id="JEiJStZFtpuKIrxnZZQP-29" value="" style="verticalLabelPosition=bottom;html=1;verticalAlign=top;strokeColor=none;fillColor=#00BEF2;shape=mxgraph.azure.azure_active_directory;" parent="1" vertex="1">
          <mxGeometry x="-1216" y="306" width="47.5" height="50" as="geometry" />
        </mxCell>
        <mxCell id="JEiJStZFtpuKIrxnZZQP-30" value="" style="verticalLabelPosition=bottom;html=1;verticalAlign=top;strokeColor=none;fillColor=#00BEF2;shape=mxgraph.azure.azure_active_directory;" parent="1" vertex="1">
          <mxGeometry x="-1217" y="360" width="47.5" height="50" as="geometry" />
        </mxCell>
        <mxCell id="JEiJStZFtpuKIrxnZZQP-31" value="" style="verticalLabelPosition=bottom;html=1;verticalAlign=top;strokeColor=none;fillColor=#00BEF2;shape=mxgraph.azure.cloud_service;" parent="1" vertex="1">
          <mxGeometry x="-1024" y="570" width="50" height="40" as="geometry" />
        </mxCell>
        <mxCell id="JEiJStZFtpuKIrxnZZQP-32" value="" style="verticalLabelPosition=bottom;html=1;verticalAlign=top;strokeColor=none;fillColor=#00BEF2;shape=mxgraph.azure.cloud_service;" parent="1" vertex="1">
          <mxGeometry x="-1023" y="657" width="50" height="40" as="geometry" />
        </mxCell>
        <mxCell id="JEiJStZFtpuKIrxnZZQP-33" style="edgeStyle=none;rounded=0;html=1;exitX=0.5;exitY=1;entryX=0.16;entryY=0.556;entryPerimeter=0;startArrow=none;startFill=0;endArrow=blockThin;endFill=1;jettySize=auto;orthogonalLoop=1;strokeColor=#3399FF;strokeWidth=2;fontColor=#00BEF2;" parent="1" source="JEiJStZFtpuKIrxnZZQP-35" target="JEiJStZFtpuKIrxnZZQP-43" edge="1">
          <mxGeometry relative="1" as="geometry" />
        </mxCell>
        <mxCell id="JEiJStZFtpuKIrxnZZQP-35" value="&lt;b&gt;后台查询、审核、风控&lt;/b&gt;" style="text;html=1;strokeColor=none;fillColor=none;align=center;verticalAlign=middle;whiteSpace=wrap;rounded=0;rotation=-90;" parent="1" vertex="1">
          <mxGeometry x="-1091" y="371" width="136" height="29" as="geometry" />
        </mxCell>
        <mxCell id="JEiJStZFtpuKIrxnZZQP-36" value="" style="endArrow=none;dashed=1;html=1;strokeColor=#3399FF;strokeWidth=2;edgeStyle=orthogonalEdgeStyle;" parent="1" edge="1">
          <mxGeometry width="50" height="50" relative="1" as="geometry">
            <mxPoint x="-1137" y="590" as="sourcePoint" />
            <mxPoint x="-1137" y="590" as="targetPoint" />
          </mxGeometry>
        </mxCell>
        <mxCell id="JEiJStZFtpuKIrxnZZQP-37" value="&lt;b&gt;&lt;font style=&quot;font-size: 18px&quot;&gt;后台&lt;/font&gt;&lt;/b&gt;" style="text;html=1;strokeColor=none;fillColor=none;align=center;verticalAlign=middle;whiteSpace=wrap;rounded=0;rotation=0;" parent="1" vertex="1">
          <mxGeometry x="-1310" y="280" width="40" height="20" as="geometry" />
        </mxCell>
        <mxCell id="JEiJStZFtpuKIrxnZZQP-38" value="&lt;b&gt;负载均衡&lt;/b&gt;" style="rounded=0;whiteSpace=wrap;html=1;strokeColor=#828282;fillColor=none;" parent="1" vertex="1">
          <mxGeometry x="-1218" y="280" width="55" height="18" as="geometry" />
        </mxCell>
        <mxCell id="JEiJStZFtpuKIrxnZZQP-39" value="&lt;b&gt;云主机&lt;/b&gt;" style="rounded=0;whiteSpace=wrap;html=1;strokeColor=#828282;fillColor=none;" parent="1" vertex="1">
          <mxGeometry x="-1077" y="289" width="55" height="18" as="geometry" />
        </mxCell>
        <mxCell id="JEiJStZFtpuKIrxnZZQP-40" value="&lt;b&gt;运维&lt;/b&gt;" style="rounded=0;whiteSpace=wrap;html=1;strokeColor=#828282;fillColor=none;" parent="1" vertex="1">
          <mxGeometry x="-1404" y="320" width="45" height="18" as="geometry" />
        </mxCell>
        <mxCell id="JEiJStZFtpuKIrxnZZQP-41" value="&lt;b&gt;&lt;font style=&quot;font-size: 18px&quot;&gt;自动投标&lt;/font&gt;&lt;/b&gt;" style="text;html=1;strokeColor=none;fillColor=none;align=center;verticalAlign=middle;whiteSpace=wrap;rounded=0;" parent="1" vertex="1">
          <mxGeometry x="-887" y="283" width="90" height="20" as="geometry" />
        </mxCell>
        <mxCell id="JEiJStZFtpuKIrxnZZQP-42" style="edgeStyle=orthogonalEdgeStyle;rounded=0;html=1;entryX=0.5;entryY=0;jettySize=auto;orthogonalLoop=1;strokeColor=#3399FF;strokeWidth=2;" parent="1" source="JEiJStZFtpuKIrxnZZQP-43" target="JEiJStZFtpuKIrxnZZQP-19" edge="1">
          <mxGeometry relative="1" as="geometry" />
        </mxCell>
        <mxCell id="JEiJStZFtpuKIrxnZZQP-43" value="" style="verticalLabelPosition=bottom;html=1;verticalAlign=top;strokeColor=none;fillColor=#00BEF2;shape=mxgraph.azure.storage_queue;" parent="1" vertex="1">
          <mxGeometry x="-873" y="360" width="50" height="45" as="geometry" />
        </mxCell>
        <mxCell id="JEiJStZFtpuKIrxnZZQP-44" value="&lt;b&gt;MNS&lt;/b&gt;" style="rounded=0;whiteSpace=wrap;html=1;strokeColor=#828282;fillColor=none;" parent="1" vertex="1">
          <mxGeometry x="-873" y="328" width="55" height="18" as="geometry" />
        </mxCell>
        <mxCell id="JEiJStZFtpuKIrxnZZQP-45" value="" style="verticalLabelPosition=bottom;html=1;verticalAlign=top;strokeColor=none;fillColor=#00BEF2;shape=mxgraph.azure.cloud_service;" parent="1" vertex="1">
          <mxGeometry x="-751" y="391" width="50" height="40" as="geometry" />
        </mxCell>
        <mxCell id="JEiJStZFtpuKIrxnZZQP-46" value="" style="verticalLabelPosition=bottom;html=1;verticalAlign=top;strokeColor=none;fillColor=#00BEF2;shape=mxgraph.azure.cloud_service;" parent="1" vertex="1">
          <mxGeometry x="-749" y="312" width="50" height="40" as="geometry" />
        </mxCell>
        <mxCell id="JEiJStZFtpuKIrxnZZQP-47" value="&lt;b&gt;云主机&lt;/b&gt;" style="rounded=0;whiteSpace=wrap;html=1;strokeColor=#828282;fillColor=none;" parent="1" vertex="1">
          <mxGeometry x="-746" y="294" width="55" height="18" as="geometry" />
        </mxCell>
        <mxCell id="JEiJStZFtpuKIrxnZZQP-48" value="" style="verticalLabelPosition=bottom;html=1;verticalAlign=top;strokeColor=none;fillColor=#00BEF2;shape=mxgraph.azure.file;" parent="1" vertex="1">
          <mxGeometry x="-425" y="369" width="47.5" height="50" as="geometry" />
        </mxCell>
        <mxCell id="JEiJStZFtpuKIrxnZZQP-49" value="&lt;b&gt;征信&lt;/b&gt;" style="rounded=0;whiteSpace=wrap;html=1;strokeColor=#828282;fillColor=none;" parent="1" vertex="1">
          <mxGeometry x="-432" y="346" width="55" height="18" as="geometry" />
        </mxCell>
        <mxCell id="JEiJStZFtpuKIrxnZZQP-53" value="&lt;b&gt;自动投标守护进程&lt;/b&gt;" style="text;html=1;strokeColor=none;fillColor=none;align=center;verticalAlign=middle;whiteSpace=wrap;rounded=0;rotation=-90;" parent="1" vertex="1">
          <mxGeometry x="-760" y="382" width="136" height="20" as="geometry" />
        </mxCell>
        <mxCell id="JEiJStZFtpuKIrxnZZQP-59" value="&lt;b&gt;主从+只读实列&lt;/b&gt;" style="text;html=1;strokeColor=none;fillColor=none;align=center;verticalAlign=middle;whiteSpace=wrap;rounded=0;rotation=-90;" parent="1" vertex="1">
          <mxGeometry x="1060" y="497" width="110" height="20" as="geometry" />
        </mxCell>
        <mxCell id="JEiJStZFtpuKIrxnZZQP-60" value="&lt;b&gt;&lt;font style=&quot;font-size: 18px&quot;&gt;风控&lt;/font&gt;&lt;/b&gt;" style="text;html=1;strokeColor=none;fillColor=none;align=center;verticalAlign=middle;whiteSpace=wrap;rounded=0;" parent="1" vertex="1">
          <mxGeometry x="-453" y="300" width="90" height="20" as="geometry" />
        </mxCell>
        <mxCell id="JEiJStZFtpuKIrxnZZQP-61" value="" style="shape=image;html=1;verticalAlign=top;verticalLabelPosition=bottom;labelBackgroundColor=#ffffff;imageAspect=0;aspect=fixed;image=https://cdn4.iconfinder.com/data/icons/for-your-interface-free-samples/128/Umbrella-128.png;strokeColor=#828282;fillColor=#00BEF2;" parent="1" vertex="1">
          <mxGeometry x="-604" y="330" width="48" height="48" as="geometry" />
        </mxCell>
        <mxCell id="JEiJStZFtpuKIrxnZZQP-62" value="" style="shape=image;html=1;verticalAlign=top;verticalLabelPosition=bottom;labelBackgroundColor=#ffffff;imageAspect=0;aspect=fixed;image=https://cdn1.iconfinder.com/data/icons/unique-round-blue/93/lock-128.png;strokeColor=#828282;fillColor=#00BEF2;" parent="1" vertex="1">
          <mxGeometry x="-600" y="394" width="40" height="40" as="geometry" />
        </mxCell>
        <mxCell id="JEiJStZFtpuKIrxnZZQP-63" value="&lt;span style=&quot;font-size: 18px&quot;&gt;&lt;b&gt;安全&lt;/b&gt;&lt;/span&gt;" style="text;html=1;strokeColor=none;fillColor=none;align=center;verticalAlign=middle;whiteSpace=wrap;rounded=0;" parent="1" vertex="1">
          <mxGeometry x="-608" y="299" width="90" height="20" as="geometry" />
        </mxCell>
        <mxCell id="JEiJStZFtpuKIrxnZZQP-64" value="&lt;b&gt;先知计划&lt;/b&gt;" style="rounded=0;whiteSpace=wrap;html=1;strokeColor=#828282;fillColor=none;" parent="1" vertex="1">
          <mxGeometry x="-560" y="339" width="55" height="20" as="geometry" />
        </mxCell>
        <mxCell id="JEiJStZFtpuKIrxnZZQP-65" value="&lt;b&gt;安全管家&lt;/b&gt;" style="rounded=0;whiteSpace=wrap;html=1;strokeColor=#828282;fillColor=none;" parent="1" vertex="1">
          <mxGeometry x="-559" y="401" width="55" height="18" as="geometry" />
        </mxCell>
        <mxCell id="JEiJStZFtpuKIrxnZZQP-66" style="edgeStyle=orthogonalEdgeStyle;rounded=0;html=1;exitX=0.5;exitY=1;entryX=0.5;entryY=1;jettySize=auto;orthogonalLoop=1;strokeColor=#3399FF;strokeWidth=2;" parent="1" source="JEiJStZFtpuKIrxnZZQP-64" target="JEiJStZFtpuKIrxnZZQP-64" edge="1">
          <mxGeometry relative="1" as="geometry" />
        </mxCell>
        <mxCell id="JEiJStZFtpuKIrxnZZQP-67" value="" style="verticalLabelPosition=bottom;html=1;verticalAlign=top;strokeColor=none;fillColor=#00BEF2;shape=mxgraph.azure.cloud_service;" parent="1" vertex="1">
          <mxGeometry x="-1083" y="407" width="50" height="40" as="geometry" />
        </mxCell>
        <mxCell id="JEiJStZFtpuKIrxnZZQP-68" value="" style="verticalLabelPosition=bottom;html=1;verticalAlign=top;strokeColor=none;fillColor=#00BEF2;shape=mxgraph.azure.cloud_service;" parent="1" vertex="1">
          <mxGeometry x="-1085" y="327" width="50" height="40" as="geometry" />
        </mxCell>
        <mxCell id="JEiJStZFtpuKIrxnZZQP-69" value="&lt;b&gt;账户管理、交易、定单查询&lt;/b&gt;" style="text;html=1;strokeColor=none;fillColor=none;align=center;verticalAlign=middle;whiteSpace=wrap;rounded=0;rotation=-90;" parent="1" vertex="1">
          <mxGeometry x="-1044" y="627" width="150" height="20" as="geometry" />
        </mxCell>
        <mxCell id="JEiJStZFtpuKIrxnZZQP-70" value="&lt;b&gt;云主机&lt;/b&gt;" style="rounded=0;whiteSpace=wrap;html=1;strokeColor=#828282;fillColor=none;" parent="1" vertex="1">
          <mxGeometry x="-1020" y="537" width="55" height="18" as="geometry" />
        </mxCell>
        <mxCell id="JEiJStZFtpuKIrxnZZQP-71" value="" style="verticalLabelPosition=bottom;html=1;verticalAlign=top;strokeColor=none;fillColor=#00BEF2;shape=mxgraph.azure.azure_active_directory;" parent="1" vertex="1">
          <mxGeometry x="-1193" y="553" width="47.5" height="50" as="geometry" />
        </mxCell>
        <mxCell id="JEiJStZFtpuKIrxnZZQP-72" value="" style="verticalLabelPosition=bottom;html=1;verticalAlign=top;strokeColor=none;fillColor=#00BEF2;shape=mxgraph.azure.azure_active_directory;" parent="1" vertex="1">
          <mxGeometry x="-1193" y="614" width="47.5" height="50" as="geometry" />
        </mxCell>
        <mxCell id="JEiJStZFtpuKIrxnZZQP-171" style="edgeStyle=orthogonalEdgeStyle;rounded=0;orthogonalLoop=1;jettySize=auto;html=1;exitX=0.51;exitY=1;exitDx=0;exitDy=0;exitPerimeter=0;dashed=1;fontColor=#FFFFFF;" parent="1" source="JEiJStZFtpuKIrxnZZQP-73" target="JEiJStZFtpuKIrxnZZQP-146" edge="1">
          <mxGeometry relative="1" as="geometry">
            <Array as="points">
              <mxPoint x="484" y="330" />
              <mxPoint x="618" y="330" />
            </Array>
          </mxGeometry>
        </mxCell>
        <mxCell id="JEiJStZFtpuKIrxnZZQP-73" value="负载均衡" style="verticalLabelPosition=bottom;html=1;verticalAlign=top;strokeColor=none;fillColor=#007FFF;shape=mxgraph.azure.azure_active_directory;rotation=0;labelBackgroundColor=default;fontStyle=1" parent="1" vertex="1">
          <mxGeometry x="457.82" y="226.14" width="51" height="54" as="geometry" />
        </mxCell>
        <mxCell id="JEiJStZFtpuKIrxnZZQP-74" value="&lt;b&gt;负载均衡&lt;/b&gt;" style="rounded=0;whiteSpace=wrap;html=1;strokeColor=#828282;fillColor=none;" parent="1" vertex="1">
          <mxGeometry x="-1200" y="530" width="55" height="18" as="geometry" />
        </mxCell>
        <mxCell id="JEiJStZFtpuKIrxnZZQP-75" style="edgeStyle=none;rounded=0;html=1;exitX=1;exitY=0.5;exitPerimeter=0;entryX=0.5;entryY=0;startArrow=none;startFill=0;endArrow=blockThin;endFill=1;jettySize=auto;orthogonalLoop=1;strokeColor=#3399FF;strokeWidth=2;fontColor=#00BEF2;" parent="1" source="JEiJStZFtpuKIrxnZZQP-76" target="JEiJStZFtpuKIrxnZZQP-21" edge="1">
          <mxGeometry relative="1" as="geometry" />
        </mxCell>
        <mxCell id="JEiJStZFtpuKIrxnZZQP-76" value="" style="shape=mxgraph.cisco.misc.ssl_terminator;html=1;dashed=0;fillColor=#00BEF2;strokeColor=#ffffff;strokeWidth=2;verticalLabelPosition=bottom;verticalAlign=top" parent="1" vertex="1">
          <mxGeometry x="-1103" y="620" width="53" height="49" as="geometry" />
        </mxCell>
        <mxCell id="JEiJStZFtpuKIrxnZZQP-77" value="&lt;b&gt;SSL证书&lt;/b&gt;" style="rounded=0;whiteSpace=wrap;html=1;strokeColor=#828282;fillColor=none;" parent="1" vertex="1">
          <mxGeometry x="-1110" y="585" width="55" height="18" as="geometry" />
        </mxCell>
        <mxCell id="JEiJStZFtpuKIrxnZZQP-78" value="" style="shadow=0;dashed=0;html=1;strokeColor=none;shape=mxgraph.mscae.intune.protection;fillColor=#00BEF2;" parent="1" vertex="1">
          <mxGeometry x="-1301" y="674" width="48" height="50" as="geometry" />
        </mxCell>
        <mxCell id="JEiJStZFtpuKIrxnZZQP-79" value="" style="dashed=0;html=1;shape=mxgraph.aws3.customer_gateway;fillColor=#00BEF2;gradientColor=none;strokeColor=#828282;" parent="1" vertex="1">
          <mxGeometry x="-1297" y="581" width="45" height="47" as="geometry" />
        </mxCell>
        <mxCell id="JEiJStZFtpuKIrxnZZQP-80" value="&lt;b&gt;DDOS高防IP&lt;/b&gt;" style="rounded=0;whiteSpace=wrap;html=1;strokeColor=#828282;fillColor=none;" parent="1" vertex="1">
          <mxGeometry x="-1321" y="548" width="87" height="18" as="geometry" />
        </mxCell>
        <mxCell id="JEiJStZFtpuKIrxnZZQP-81" style="edgeStyle=orthogonalEdgeStyle;rounded=0;html=1;exitX=0.25;exitY=0;entryX=0.25;entryY=0;jettySize=auto;orthogonalLoop=1;strokeColor=#3399FF;strokeWidth=2;" parent="1" source="JEiJStZFtpuKIrxnZZQP-80" target="JEiJStZFtpuKIrxnZZQP-80" edge="1">
          <mxGeometry relative="1" as="geometry" />
        </mxCell>
        <mxCell id="JEiJStZFtpuKIrxnZZQP-82" value="&lt;b&gt;WAF&lt;/b&gt;" style="rounded=0;whiteSpace=wrap;html=1;strokeColor=#828282;fillColor=none;" parent="1" vertex="1">
          <mxGeometry x="-1277" y="656" width="37" height="18" as="geometry" />
        </mxCell>
        <mxCell id="JEiJStZFtpuKIrxnZZQP-83" style="edgeStyle=orthogonalEdgeStyle;rounded=0;html=1;entryX=0.5;entryY=0;jettySize=auto;orthogonalLoop=1;strokeColor=#3399FF;strokeWidth=2;" parent="1" source="JEiJStZFtpuKIrxnZZQP-84" target="JEiJStZFtpuKIrxnZZQP-17" edge="1">
          <mxGeometry relative="1" as="geometry" />
        </mxCell>
        <mxCell id="JEiJStZFtpuKIrxnZZQP-84" value="" style="html=1;strokeWidth=1;shadow=0;dashed=0;shape=mxgraph.ios7.misc.vpn;fillColor=#00BEF2;strokeColor=none;buttonText=;strokeColor2=#222222;fontColor=#222222;fontSize=8;verticalLabelPosition=bottom;verticalAlign=top;align=center;" parent="1" vertex="1">
          <mxGeometry x="-1290" y="364" width="42" height="42" as="geometry" />
        </mxCell>
        <mxCell id="JEiJStZFtpuKIrxnZZQP-85" value="" style="fontColor=#0066CC;verticalAlign=top;verticalLabelPosition=bottom;labelPosition=center;align=center;html=1;fillColor=#007FFF;strokeColor=#6881B3;gradientColor=none;gradientDirection=north;strokeWidth=2;shape=mxgraph.networks.pc;" parent="1" vertex="1">
          <mxGeometry x="492.5" y="-47.38" width="45" height="31" as="geometry" />
        </mxCell>
        <mxCell id="JEiJStZFtpuKIrxnZZQP-86" value="" style="shadow=0;dashed=0;html=1;strokeColor=none;fillColor=#007FFF;labelPosition=center;verticalLabelPosition=bottom;verticalAlign=top;shape=mxgraph.office.devices.cell_phone_iphone_proportional;" parent="1" vertex="1">
          <mxGeometry x="569" y="-51.38" width="21" height="35" as="geometry" />
        </mxCell>
        <mxCell id="JEiJStZFtpuKIrxnZZQP-88" value="&lt;b&gt;PC\H5\APP 用户&lt;/b&gt;" style="text;html=1;strokeColor=default;fillColor=#000000;align=center;verticalAlign=middle;whiteSpace=wrap;rounded=1;rotation=0;labelBackgroundColor=none;fontColor=#FFFFFF;shadow=0;labelBorderColor=none;" parent="1" vertex="1">
          <mxGeometry x="472.5" y="-79.38" width="110" height="20" as="geometry" />
        </mxCell>
        <mxCell id="JEiJStZFtpuKIrxnZZQP-89" value="&lt;b&gt;&lt;font style=&quot;font-size: 18px&quot;&gt;维护&lt;/font&gt;&lt;/b&gt;" style="text;html=1;strokeColor=none;fillColor=none;align=center;verticalAlign=middle;whiteSpace=wrap;rounded=0;" parent="1" vertex="1">
          <mxGeometry x="-580" y="564" width="56" height="20" as="geometry" />
        </mxCell>
        <mxCell id="JEiJStZFtpuKIrxnZZQP-90" value="" style="shape=image;html=1;verticalAlign=top;verticalLabelPosition=bottom;labelBackgroundColor=#ffffff;imageAspect=0;aspect=fixed;image=https://cdn4.iconfinder.com/data/icons/48-bubbles/48/24.TV-128.png;strokeColor=#CCCCCC;fillColor=#00BEF2;fontColor=#00BEF2;" parent="1" vertex="1">
          <mxGeometry x="-510" y="635" width="56" height="56" as="geometry" />
        </mxCell>
        <mxCell id="JEiJStZFtpuKIrxnZZQP-91" value="&lt;b&gt;保磊机&lt;/b&gt;" style="rounded=0;whiteSpace=wrap;html=1;strokeColor=#828282;fillColor=none;" parent="1" vertex="1">
          <mxGeometry x="-463" y="612" width="55" height="18" as="geometry" />
        </mxCell>
        <mxCell id="JEiJStZFtpuKIrxnZZQP-92" style="edgeStyle=none;rounded=0;html=1;exitX=1;exitY=0.5;endArrow=none;endFill=0;jettySize=auto;orthogonalLoop=1;strokeColor=#3399FF;strokeWidth=2;fontColor=#00BEF2;" parent="1" source="JEiJStZFtpuKIrxnZZQP-4" target="JEiJStZFtpuKIrxnZZQP-4" edge="1">
          <mxGeometry relative="1" as="geometry" />
        </mxCell>
        <mxCell id="JEiJStZFtpuKIrxnZZQP-93" value="&lt;b&gt;&lt;font style=&quot;font-size: 18px&quot;&gt;前台&lt;/font&gt;&lt;/b&gt;" style="text;html=1;strokeColor=none;fillColor=none;align=center;verticalAlign=middle;whiteSpace=wrap;rounded=0;" parent="1" vertex="1">
          <mxGeometry x="-1317" y="520" width="40" height="20" as="geometry" />
        </mxCell>
        <mxCell id="JEiJStZFtpuKIrxnZZQP-94" value="" style="rounded=1;arcSize=10;dashed=1;strokeColor=#3399FF;fillColor=none;strokeWidth=2;" parent="1" vertex="1">
          <mxGeometry x="-625" y="294" width="90" height="150" as="geometry" />
        </mxCell>
        <mxCell id="JEiJStZFtpuKIrxnZZQP-95" style="edgeStyle=none;rounded=0;html=1;exitX=0.75;exitY=0;startArrow=blockThin;startFill=1;endArrow=blockThin;endFill=1;jettySize=auto;orthogonalLoop=1;strokeColor=#3399FF;strokeWidth=2;fontColor=#00BEF2;" parent="1" source="JEiJStZFtpuKIrxnZZQP-88" target="JEiJStZFtpuKIrxnZZQP-88" edge="1">
          <mxGeometry relative="1" as="geometry" />
        </mxCell>
        <mxCell id="JEiJStZFtpuKIrxnZZQP-96" style="edgeStyle=none;rounded=0;html=1;entryX=-0.012;entryY=0.452;entryPerimeter=0;startArrow=none;startFill=0;endArrow=blockThin;endFill=1;jettySize=auto;orthogonalLoop=1;strokeColor=#3399FF;strokeWidth=2;fontColor=#00BEF2;" parent="1" source="JEiJStZFtpuKIrxnZZQP-97" target="JEiJStZFtpuKIrxnZZQP-84" edge="1">
          <mxGeometry relative="1" as="geometry" />
        </mxCell>
        <mxCell id="JEiJStZFtpuKIrxnZZQP-97" value="" style="verticalLabelPosition=bottom;html=1;verticalAlign=top;strokeColor=none;fillColor=#00BEF2;shape=mxgraph.azure.user;" parent="1" vertex="1">
          <mxGeometry x="-1410" y="358" width="47.5" height="50" as="geometry" />
        </mxCell>
        <mxCell id="JEiJStZFtpuKIrxnZZQP-98" value="&lt;b&gt;技术&lt;/b&gt;" style="rounded=0;whiteSpace=wrap;html=1;strokeColor=#828282;fillColor=none;" parent="1" vertex="1">
          <mxGeometry x="-472" y="471" width="45" height="18" as="geometry" />
        </mxCell>
        <mxCell id="JEiJStZFtpuKIrxnZZQP-101" value="&lt;b&gt;www.wom.io&lt;/b&gt;" style="text;html=1;strokeColor=default;fillColor=#000000;align=center;verticalAlign=middle;whiteSpace=wrap;rounded=1;rotation=0;labelBackgroundColor=none;fontColor=#FFFFFF;shadow=0;labelBorderColor=none;" parent="1" vertex="1">
          <mxGeometry x="377.75" y="60" width="82.25" height="20" as="geometry" />
        </mxCell>
        <mxCell id="JEiJStZFtpuKIrxnZZQP-107" value="HTTP" style="edgeStyle=orthogonalEdgeStyle;rounded=0;orthogonalLoop=1;jettySize=auto;html=1;exitX=0.5;exitY=0.84;exitDx=0;exitDy=0;exitPerimeter=0;entryX=0.51;entryY=0;entryDx=0;entryDy=0;entryPerimeter=0;fontColor=#000000;fontStyle=1" parent="1" source="JEiJStZFtpuKIrxnZZQP-102" target="JEiJStZFtpuKIrxnZZQP-73" edge="1">
          <mxGeometry x="0.5055" relative="1" as="geometry">
            <Array as="points">
              <mxPoint x="485" y="129" />
            </Array>
            <mxPoint as="offset" />
          </mxGeometry>
        </mxCell>
        <mxCell id="JEiJStZFtpuKIrxnZZQP-102" value="&lt;font color=&quot;#000000&quot;&gt;Cloud&lt;br&gt;CDN&lt;/font&gt;" style="sketch=0;html=1;fillColor=#007FFF;strokeColor=none;verticalAlign=top;labelPosition=center;verticalLabelPosition=bottom;align=center;spacingTop=-6;fontSize=11;fontStyle=1;fontColor=#999999;shape=mxgraph.gcp2.hexIcon;prIcon=cloud_cdn;rounded=1;shadow=0;labelBackgroundColor=default;labelBorderColor=none;" parent="1" vertex="1">
          <mxGeometry x="452" y="80" width="66" height="58.5" as="geometry" />
        </mxCell>
        <mxCell id="JEiJStZFtpuKIrxnZZQP-113" value="&lt;b&gt;qdapi.ewom.io&lt;/b&gt;" style="text;html=1;strokeColor=default;fillColor=#000000;align=center;verticalAlign=middle;whiteSpace=wrap;rounded=1;rotation=0;labelBackgroundColor=none;fontColor=#FFFFFF;shadow=0;labelBorderColor=none;" parent="1" vertex="1">
          <mxGeometry x="615.13" y="47.38" width="90" height="20" as="geometry" />
        </mxCell>
        <mxCell id="JEiJStZFtpuKIrxnZZQP-172" style="edgeStyle=orthogonalEdgeStyle;rounded=0;orthogonalLoop=1;jettySize=auto;html=1;exitX=0.51;exitY=1;exitDx=0;exitDy=0;exitPerimeter=0;entryX=0.5;entryY=0;entryDx=0;entryDy=0;entryPerimeter=0;dashed=1;fontColor=#FFFFFF;" parent="1" source="JEiJStZFtpuKIrxnZZQP-114" target="JEiJStZFtpuKIrxnZZQP-146" edge="1">
          <mxGeometry relative="1" as="geometry">
            <Array as="points">
              <mxPoint x="634" y="330" />
              <mxPoint x="618" y="330" />
            </Array>
          </mxGeometry>
        </mxCell>
        <mxCell id="JEiJStZFtpuKIrxnZZQP-114" value="负载均衡" style="verticalLabelPosition=bottom;html=1;verticalAlign=top;strokeColor=none;fillColor=#007FFF;shape=mxgraph.azure.azure_active_directory;rotation=0;labelBackgroundColor=default;fontStyle=1" parent="1" vertex="1">
          <mxGeometry x="607.3499999999999" y="235" width="52.65" height="54" as="geometry" />
        </mxCell>
        <mxCell id="JEiJStZFtpuKIrxnZZQP-105" value="&lt;b&gt;WAF&lt;/b&gt;" style="aspect=fixed;html=1;points=[];align=center;image;fontSize=12;image=img/lib/azure2/networking/Web_Application_Firewall_Policies_WAF.svg;rounded=1;shadow=0;labelBackgroundColor=default;labelBorderColor=none;fontColor=#000000;strokeColor=#666666;strokeWidth=1;fillColor=#007FFF;" parent="1" vertex="1">
          <mxGeometry x="613.6800000000001" y="80" width="40" height="40" as="geometry" />
        </mxCell>
        <mxCell id="JEiJStZFtpuKIrxnZZQP-121" value="&lt;b&gt;EC2服务器&lt;/b&gt;" style="text;html=1;strokeColor=default;fillColor=#000000;align=center;verticalAlign=middle;whiteSpace=wrap;rounded=1;rotation=0;labelBackgroundColor=none;fontColor=#FFFFFF;shadow=0;labelBorderColor=none;" parent="1" vertex="1">
          <mxGeometry x="384.62" y="438" width="65" height="20" as="geometry" />
        </mxCell>
        <mxCell id="JEiJStZFtpuKIrxnZZQP-122" value="&lt;b&gt;Cache&lt;/b&gt;" style="text;html=1;strokeColor=default;fillColor=#000000;align=center;verticalAlign=middle;whiteSpace=wrap;rounded=1;rotation=0;labelBackgroundColor=none;fontColor=#FFFFFF;shadow=0;labelBorderColor=none;" parent="1" vertex="1">
          <mxGeometry x="935" y="441" width="65" height="20" as="geometry" />
        </mxCell>
        <mxCell id="JEiJStZFtpuKIrxnZZQP-139" style="edgeStyle=orthogonalEdgeStyle;rounded=0;orthogonalLoop=1;jettySize=auto;html=1;exitX=1;exitY=0.58;exitDx=0;exitDy=0;exitPerimeter=0;entryX=0.75;entryY=0;entryDx=0;entryDy=0;fontColor=#000000;" parent="1" source="JEiJStZFtpuKIrxnZZQP-125" target="JEiJStZFtpuKIrxnZZQP-20" edge="1">
          <mxGeometry relative="1" as="geometry" />
        </mxCell>
        <mxCell id="JEiJStZFtpuKIrxnZZQP-140" style="edgeStyle=orthogonalEdgeStyle;rounded=0;orthogonalLoop=1;jettySize=auto;html=1;exitX=1;exitY=0.58;exitDx=0;exitDy=0;exitPerimeter=0;entryX=0.194;entryY=0.009;entryDx=0;entryDy=0;entryPerimeter=0;fontColor=#000000;" parent="1" source="JEiJStZFtpuKIrxnZZQP-125" target="JEiJStZFtpuKIrxnZZQP-20" edge="1">
          <mxGeometry relative="1" as="geometry" />
        </mxCell>
        <mxCell id="JEiJStZFtpuKIrxnZZQP-175" style="edgeStyle=orthogonalEdgeStyle;rounded=0;orthogonalLoop=1;jettySize=auto;html=1;exitX=0;exitY=0.58;exitDx=0;exitDy=0;exitPerimeter=0;entryX=1;entryY=0.5;entryDx=0;entryDy=0;entryPerimeter=0;dashed=1;fontColor=#FFFFFF;" parent="1" source="JEiJStZFtpuKIrxnZZQP-125" target="JEiJStZFtpuKIrxnZZQP-146" edge="1">
          <mxGeometry relative="1" as="geometry">
            <Array as="points">
              <mxPoint x="950" y="512" />
              <mxPoint x="900" y="512" />
              <mxPoint x="900" y="368" />
            </Array>
          </mxGeometry>
        </mxCell>
        <mxCell id="JEiJStZFtpuKIrxnZZQP-125" value="" style="verticalLabelPosition=bottom;html=1;verticalAlign=top;strokeColor=none;fillColor=#007FFF;shape=mxgraph.azure.azure_active_directory;rotation=5;" parent="1" vertex="1">
          <mxGeometry x="950" y="492" width="39" height="40" as="geometry" />
        </mxCell>
        <mxCell id="JEiJStZFtpuKIrxnZZQP-126" value="" style="rounded=1;arcSize=10;dashed=1;strokeColor=#3399FF;fillColor=none;strokeWidth=2;" parent="1" vertex="1">
          <mxGeometry x="920" y="620" width="220" height="160" as="geometry" />
        </mxCell>
        <mxCell id="JEiJStZFtpuKIrxnZZQP-127" value="" style="rounded=1;arcSize=10;dashed=1;strokeColor=none;fillColor=#f5f5f5;dashPattern=8 4;strokeWidth=2;rotation=-90;" parent="1" vertex="1">
          <mxGeometry x="1000" y="674" width="120" height="72" as="geometry" />
        </mxCell>
        <mxCell id="JEiJStZFtpuKIrxnZZQP-128" value="&lt;b&gt;Database&lt;/b&gt;" style="verticalLabelPosition=bottom;html=1;verticalAlign=top;strokeColor=none;fillColor=#007FFF;shape=mxgraph.azure.sql_database_sql_azure;" parent="1" vertex="1">
          <mxGeometry x="1040" y="710" width="38" height="40" as="geometry" />
        </mxCell>
        <mxCell id="JEiJStZFtpuKIrxnZZQP-129" value="&lt;b&gt;Database&lt;/b&gt;" style="verticalLabelPosition=bottom;html=1;verticalAlign=top;strokeColor=none;fillColor=#007FFF;shape=mxgraph.azure.sql_database_sql_azure;" parent="1" vertex="1">
          <mxGeometry x="1039" y="640" width="38" height="40" as="geometry" />
        </mxCell>
        <mxCell id="JEiJStZFtpuKIrxnZZQP-130" value="&lt;b&gt;主从+只读实列&lt;/b&gt;" style="text;html=1;strokeColor=none;fillColor=none;align=center;verticalAlign=middle;whiteSpace=wrap;rounded=0;rotation=-90;" parent="1" vertex="1">
          <mxGeometry x="1060" y="694" width="110" height="20" as="geometry" />
        </mxCell>
        <mxCell id="JEiJStZFtpuKIrxnZZQP-131" value="&lt;b&gt;RDB&lt;/b&gt;" style="text;html=1;strokeColor=default;fillColor=#000000;align=center;verticalAlign=middle;whiteSpace=wrap;rounded=1;rotation=0;labelBackgroundColor=none;fontColor=#FFFFFF;shadow=0;labelBorderColor=none;" parent="1" vertex="1">
          <mxGeometry x="935" y="638" width="65" height="20" as="geometry" />
        </mxCell>
        <mxCell id="JEiJStZFtpuKIrxnZZQP-137" style="edgeStyle=orthogonalEdgeStyle;rounded=0;orthogonalLoop=1;jettySize=auto;html=1;exitX=1;exitY=0.58;exitDx=0;exitDy=0;exitPerimeter=0;entryX=0.75;entryY=0.083;entryDx=0;entryDy=0;entryPerimeter=0;fontColor=#000000;" parent="1" source="JEiJStZFtpuKIrxnZZQP-132" target="JEiJStZFtpuKIrxnZZQP-127" edge="1">
          <mxGeometry relative="1" as="geometry" />
        </mxCell>
        <mxCell id="JEiJStZFtpuKIrxnZZQP-138" style="edgeStyle=orthogonalEdgeStyle;rounded=0;orthogonalLoop=1;jettySize=auto;html=1;exitX=1;exitY=0.58;exitDx=0;exitDy=0;exitPerimeter=0;entryX=0.25;entryY=0;entryDx=0;entryDy=0;fontColor=#000000;" parent="1" source="JEiJStZFtpuKIrxnZZQP-132" target="JEiJStZFtpuKIrxnZZQP-127" edge="1">
          <mxGeometry relative="1" as="geometry" />
        </mxCell>
        <mxCell id="JEiJStZFtpuKIrxnZZQP-176" style="edgeStyle=orthogonalEdgeStyle;rounded=0;orthogonalLoop=1;jettySize=auto;html=1;exitX=0;exitY=0.58;exitDx=0;exitDy=0;exitPerimeter=0;entryX=1;entryY=0.5;entryDx=0;entryDy=0;entryPerimeter=0;dashed=1;fontColor=#FFFFFF;" parent="1" source="JEiJStZFtpuKIrxnZZQP-132" target="JEiJStZFtpuKIrxnZZQP-146" edge="1">
          <mxGeometry relative="1" as="geometry">
            <Array as="points">
              <mxPoint x="900" y="710" />
              <mxPoint x="900" y="368" />
            </Array>
          </mxGeometry>
        </mxCell>
        <mxCell id="JEiJStZFtpuKIrxnZZQP-132" value="" style="verticalLabelPosition=bottom;html=1;verticalAlign=top;strokeColor=none;fillColor=#007FFF;shape=mxgraph.azure.azure_active_directory;rotation=5;" parent="1" vertex="1">
          <mxGeometry x="950" y="689" width="39" height="40" as="geometry" />
        </mxCell>
        <mxCell id="JEiJStZFtpuKIrxnZZQP-134" value="&lt;b&gt;Cache&lt;/b&gt;" style="aspect=fixed;html=1;points=[];align=center;image;fontSize=12;image=img/lib/azure2/general/Cache.svg;rounded=1;shadow=0;labelBackgroundColor=default;labelBorderColor=none;fontColor=#000000;strokeColor=#666666;strokeWidth=1;fillColor=#007FFF;" parent="1" vertex="1">
          <mxGeometry x="1040" y="451" width="34" height="34" as="geometry" />
        </mxCell>
        <mxCell id="JEiJStZFtpuKIrxnZZQP-136" value="Cache" style="aspect=fixed;html=1;points=[];align=center;image;fontSize=12;image=img/lib/azure2/general/Cache.svg;rounded=1;shadow=0;labelBackgroundColor=default;labelBorderColor=none;fontColor=#000000;strokeColor=#666666;strokeWidth=1;fillColor=#007FFF;fontStyle=1" parent="1" vertex="1">
          <mxGeometry x="1037" y="516" width="40" height="40" as="geometry" />
        </mxCell>
        <mxCell id="JEiJStZFtpuKIrxnZZQP-173" style="edgeStyle=orthogonalEdgeStyle;rounded=0;orthogonalLoop=1;jettySize=auto;html=1;exitX=0.5;exitY=0;exitDx=0;exitDy=0;exitPerimeter=0;entryX=0;entryY=0.5;entryDx=0;entryDy=0;entryPerimeter=0;dashed=1;fontColor=#FFFFFF;" parent="1" source="JEiJStZFtpuKIrxnZZQP-104" target="JEiJStZFtpuKIrxnZZQP-146" edge="1">
          <mxGeometry relative="1" as="geometry" />
        </mxCell>
        <mxCell id="JEiJStZFtpuKIrxnZZQP-104" value="EC2(主)" style="outlineConnect=0;dashed=0;verticalLabelPosition=bottom;verticalAlign=top;align=center;html=1;shape=mxgraph.aws3.ec2;fillColor=#007FFF;gradientColor=none;rounded=1;shadow=0;labelBackgroundColor=default;labelBorderColor=none;fontColor=#000000;strokeColor=#666666;strokeWidth=1;fontStyle=1" parent="1" vertex="1">
          <mxGeometry x="457.82000000000005" y="471" width="48.53" height="59" as="geometry" />
        </mxCell>
        <mxCell id="JEiJStZFtpuKIrxnZZQP-174" style="edgeStyle=orthogonalEdgeStyle;rounded=0;orthogonalLoop=1;jettySize=auto;html=1;exitX=0.5;exitY=0;exitDx=0;exitDy=0;exitPerimeter=0;entryX=1;entryY=0.5;entryDx=0;entryDy=0;entryPerimeter=0;dashed=1;fontColor=#FFFFFF;" parent="1" source="JEiJStZFtpuKIrxnZZQP-106" target="JEiJStZFtpuKIrxnZZQP-146" edge="1">
          <mxGeometry relative="1" as="geometry" />
        </mxCell>
        <mxCell id="JEiJStZFtpuKIrxnZZQP-106" value="EC2(从)" style="outlineConnect=0;dashed=0;verticalLabelPosition=bottom;verticalAlign=top;align=center;html=1;shape=mxgraph.aws3.ec2;fillColor=#007FFF;gradientColor=none;rounded=1;shadow=0;labelBackgroundColor=default;labelBorderColor=none;fontColor=#000000;strokeColor=#666666;strokeWidth=1;fontStyle=1" parent="1" vertex="1">
          <mxGeometry x="735.73" y="478" width="48.53" height="59" as="geometry" />
        </mxCell>
        <mxCell id="JEiJStZFtpuKIrxnZZQP-145" value="" style="rounded=1;arcSize=10;dashed=1;strokeColor=#666666;fillColor=none;strokeWidth=2;" parent="1" vertex="1">
          <mxGeometry x="110" y="410" width="220" height="370" as="geometry" />
        </mxCell>
        <mxCell id="LizpNqH5XbW1a9Z3ppsu-80" style="edgeStyle=orthogonalEdgeStyle;rounded=0;orthogonalLoop=1;jettySize=auto;html=1;exitX=1;exitY=0.5;exitDx=0;exitDy=0;exitPerimeter=0;entryX=0.5;entryY=0.16;entryDx=0;entryDy=0;entryPerimeter=0;dashed=1;fontColor=#FFFFFF;" edge="1" parent="1" source="JEiJStZFtpuKIrxnZZQP-146" target="LizpNqH5XbW1a9Z3ppsu-50">
          <mxGeometry relative="1" as="geometry">
            <Array as="points">
              <mxPoint x="750" y="368" />
              <mxPoint x="750" y="19" />
              <mxPoint x="857" y="19" />
            </Array>
          </mxGeometry>
        </mxCell>
        <mxCell id="JEiJStZFtpuKIrxnZZQP-146" value="VPC网络" style="outlineConnect=0;dashed=0;verticalLabelPosition=bottom;verticalAlign=top;align=center;html=1;shape=mxgraph.aws3.vpc_peering;fillColor=#007FFF;gradientColor=none;rounded=1;shadow=0;labelBackgroundColor=default;labelBorderColor=none;fontColor=#000000;strokeColor=#666666;strokeWidth=1;fontStyle=1" parent="1" vertex="1">
          <mxGeometry x="596.87" y="345.5" width="43.13" height="45" as="geometry" />
        </mxCell>
        <mxCell id="JEiJStZFtpuKIrxnZZQP-156" value="&lt;b&gt;审计/跳板机&lt;/b&gt;" style="text;html=1;strokeColor=default;fillColor=#000000;align=center;verticalAlign=middle;whiteSpace=wrap;rounded=1;rotation=0;labelBackgroundColor=none;fontColor=#FFFFFF;shadow=0;labelBorderColor=none;" parent="1" vertex="1">
          <mxGeometry x="130" y="424" width="80" height="20" as="geometry" />
        </mxCell>
        <mxCell id="JEiJStZFtpuKIrxnZZQP-177" style="edgeStyle=orthogonalEdgeStyle;rounded=0;orthogonalLoop=1;jettySize=auto;html=1;exitX=0.5;exitY=0;exitDx=0;exitDy=0;exitPerimeter=0;entryX=0;entryY=0.5;entryDx=0;entryDy=0;entryPerimeter=0;dashed=1;fontColor=#FFFFFF;" parent="1" source="JEiJStZFtpuKIrxnZZQP-157" target="JEiJStZFtpuKIrxnZZQP-146" edge="1">
          <mxGeometry relative="1" as="geometry" />
        </mxCell>
        <mxCell id="JEiJStZFtpuKIrxnZZQP-157" value="EC2" style="outlineConnect=0;dashed=0;verticalLabelPosition=bottom;verticalAlign=top;align=center;html=1;shape=mxgraph.aws3.ec2;fillColor=#666666;gradientColor=none;rounded=1;shadow=0;labelBackgroundColor=default;labelBorderColor=none;fontColor=#000000;strokeColor=#666666;strokeWidth=1;fontStyle=1" parent="1" vertex="1">
          <mxGeometry x="190" y="467" width="48.53" height="59" as="geometry" />
        </mxCell>
        <mxCell id="JEiJStZFtpuKIrxnZZQP-162" value="PC" style="text;html=1;strokeColor=#82b366;fillColor=#d5e8d4;align=center;verticalAlign=middle;whiteSpace=wrap;rounded=1;shadow=0;labelBackgroundColor=none;labelBorderColor=none;spacingTop=1;" parent="1" vertex="1">
          <mxGeometry x="377.75" y="560" width="40" height="16" as="geometry" />
        </mxCell>
        <mxCell id="JEiJStZFtpuKIrxnZZQP-164" value="H5" style="text;html=1;strokeColor=#82b366;fillColor=#d5e8d4;align=center;verticalAlign=middle;whiteSpace=wrap;rounded=1;shadow=0;labelBackgroundColor=none;labelBorderColor=none;spacingTop=1;" parent="1" vertex="1">
          <mxGeometry x="422.5" y="560" width="40" height="16" as="geometry" />
        </mxCell>
        <mxCell id="JEiJStZFtpuKIrxnZZQP-165" value="Admin HTML" style="text;html=1;strokeColor=#82b366;fillColor=#d5e8d4;align=center;verticalAlign=middle;whiteSpace=wrap;rounded=1;shadow=0;labelBackgroundColor=none;labelBorderColor=none;spacingTop=1;" parent="1" vertex="1">
          <mxGeometry x="468.82" y="560" width="81.18" height="16" as="geometry" />
        </mxCell>
        <mxCell id="JEiJStZFtpuKIrxnZZQP-166" value="Admin API" style="text;html=1;strokeColor=#006EAF;fillColor=#1ba1e2;align=center;verticalAlign=middle;whiteSpace=wrap;rounded=1;shadow=0;labelBackgroundColor=none;labelBorderColor=none;spacingTop=1;fontColor=#ffffff;" parent="1" vertex="1">
          <mxGeometry x="377.75" y="600" width="71.18" height="16" as="geometry" />
        </mxCell>
        <mxCell id="JEiJStZFtpuKIrxnZZQP-167" value="ChainAPI" style="text;html=1;strokeColor=#006EAF;fillColor=#1ba1e2;align=center;verticalAlign=middle;whiteSpace=wrap;rounded=1;shadow=0;labelBackgroundColor=none;labelBorderColor=none;fontColor=#ffffff;spacingTop=1;" parent="1" vertex="1">
          <mxGeometry x="462.5" y="600" width="62.25" height="16" as="geometry" />
        </mxCell>
        <mxCell id="JEiJStZFtpuKIrxnZZQP-168" value="ChainRPC" style="text;html=1;strokeColor=#BD7000;fillColor=#f0a30a;align=center;verticalAlign=middle;whiteSpace=wrap;rounded=1;shadow=0;labelBackgroundColor=none;labelBorderColor=none;fontColor=#FFFFFF;spacingTop=1;" parent="1" vertex="1">
          <mxGeometry x="377.75" y="655" width="62.25" height="16" as="geometry" />
        </mxCell>
        <mxCell id="JEiJStZFtpuKIrxnZZQP-169" value="NodeAPI" style="text;html=1;strokeColor=#006EAF;fillColor=#1ba1e2;align=center;verticalAlign=middle;whiteSpace=wrap;rounded=1;shadow=0;labelBackgroundColor=none;labelBorderColor=none;fontColor=#ffffff;spacingTop=1;" parent="1" vertex="1">
          <mxGeometry x="534.62" y="600" width="62.25" height="16" as="geometry" />
        </mxCell>
        <mxCell id="JEiJStZFtpuKIrxnZZQP-170" value="NodeRPC" style="text;html=1;strokeColor=#BD7000;fillColor=#f0a30a;align=center;verticalAlign=middle;whiteSpace=wrap;rounded=1;shadow=0;labelBackgroundColor=none;labelBorderColor=none;fontColor=#FFFFFF;spacingTop=1;" parent="1" vertex="1">
          <mxGeometry x="446.5699999999999" y="654.5" width="62.25" height="16" as="geometry" />
        </mxCell>
        <mxCell id="LizpNqH5XbW1a9Z3ppsu-4" value="MqueueMQ" style="text;html=1;strokeColor=#23445d;fillColor=#bac8d3;align=center;verticalAlign=middle;whiteSpace=wrap;rounded=1;shadow=0;labelBackgroundColor=none;labelBorderColor=none;spacingTop=1;" vertex="1" parent="1">
          <mxGeometry x="378.57" y="740" width="62.25" height="16" as="geometry" />
        </mxCell>
        <mxCell id="LizpNqH5XbW1a9Z3ppsu-5" value="MqueueRPC" style="text;html=1;strokeColor=#BD7000;fillColor=#f0a30a;align=center;verticalAlign=middle;whiteSpace=wrap;rounded=1;shadow=0;labelBackgroundColor=none;labelBorderColor=none;spacingTop=1;fontColor=#FFFFFF;" vertex="1" parent="1">
          <mxGeometry x="518" y="654.5" width="72" height="16" as="geometry" />
        </mxCell>
        <mxCell id="LizpNqH5XbW1a9Z3ppsu-6" value="ScheduleJob" style="text;html=1;strokeColor=#23445d;fillColor=#bac8d3;align=center;verticalAlign=middle;whiteSpace=wrap;rounded=1;shadow=0;labelBackgroundColor=none;labelBorderColor=none;spacingTop=1;" vertex="1" parent="1">
          <mxGeometry x="452" y="740" width="68" height="16" as="geometry" />
        </mxCell>
        <mxCell id="LizpNqH5XbW1a9Z3ppsu-7" value="ScheduleRPC" style="text;html=1;strokeColor=#BD7000;fillColor=#f0a30a;align=center;verticalAlign=middle;whiteSpace=wrap;rounded=1;shadow=0;labelBackgroundColor=none;labelBorderColor=none;spacingTop=1;fontColor=#FFFFFF;" vertex="1" parent="1">
          <mxGeometry x="377.75" y="681" width="72.25" height="16" as="geometry" />
        </mxCell>
        <mxCell id="LizpNqH5XbW1a9Z3ppsu-8" value="&lt;span style=&quot;color: rgb(255 , 255 , 255)&quot;&gt;StatisticsRPC&lt;/span&gt;" style="text;html=1;strokeColor=#BD7000;fillColor=#f0a30a;align=center;verticalAlign=middle;whiteSpace=wrap;rounded=1;shadow=0;labelBackgroundColor=none;labelBorderColor=none;spacingTop=1;fontColor=#000000;" vertex="1" parent="1">
          <mxGeometry x="457.82" y="681" width="72.25" height="16" as="geometry" />
        </mxCell>
        <mxCell id="LizpNqH5XbW1a9Z3ppsu-9" value="StatisticsAPI" style="text;html=1;strokeColor=#006EAF;fillColor=#1ba1e2;align=center;verticalAlign=middle;whiteSpace=wrap;rounded=1;shadow=0;labelBackgroundColor=none;labelBorderColor=none;spacingTop=1;fontColor=#ffffff;" vertex="1" parent="1">
          <mxGeometry x="378.57" y="627" width="68" height="16" as="geometry" />
        </mxCell>
        <mxCell id="LizpNqH5XbW1a9Z3ppsu-10" value="UserAPI" style="text;html=1;strokeColor=#006EAF;fillColor=#1ba1e2;align=center;verticalAlign=middle;whiteSpace=wrap;rounded=1;shadow=0;labelBackgroundColor=none;labelBorderColor=none;spacingTop=1;fontColor=#ffffff;" vertex="1" parent="1">
          <mxGeometry x="462.5" y="627" width="68" height="16" as="geometry" />
        </mxCell>
        <mxCell id="LizpNqH5XbW1a9Z3ppsu-11" value="WalletAPI" style="text;html=1;strokeColor=#006EAF;fillColor=#1ba1e2;align=center;verticalAlign=middle;whiteSpace=wrap;rounded=1;shadow=0;labelBackgroundColor=none;labelBorderColor=none;spacingTop=1;fontColor=#ffffff;" vertex="1" parent="1">
          <mxGeometry x="540" y="627" width="68" height="16" as="geometry" />
        </mxCell>
        <mxCell id="LizpNqH5XbW1a9Z3ppsu-12" value="UserRPC" style="text;html=1;strokeColor=#BD7000;fillColor=#f0a30a;align=center;verticalAlign=middle;whiteSpace=wrap;rounded=1;shadow=0;labelBackgroundColor=none;labelBorderColor=none;spacingTop=1;fontColor=#FFFFFF;" vertex="1" parent="1">
          <mxGeometry x="540" y="681" width="68" height="16" as="geometry" />
        </mxCell>
        <mxCell id="LizpNqH5XbW1a9Z3ppsu-13" value="WalletRPC" style="text;html=1;strokeColor=#BD7000;fillColor=#f0a30a;align=center;verticalAlign=middle;whiteSpace=wrap;rounded=1;shadow=0;labelBackgroundColor=none;labelBorderColor=none;spacingTop=1;fontColor=#FFFFFF;" vertex="1" parent="1">
          <mxGeometry x="377.75000000000006" y="708" width="68" height="16" as="geometry" />
        </mxCell>
        <mxCell id="LizpNqH5XbW1a9Z3ppsu-14" value="WebSocketRPC" style="text;html=1;strokeColor=#BD7000;fillColor=#f0a30a;align=center;verticalAlign=middle;whiteSpace=wrap;rounded=1;shadow=0;labelBackgroundColor=none;labelBorderColor=none;spacingTop=1;fontColor=#FFFFFF;" vertex="1" parent="1">
          <mxGeometry x="459.5" y="708" width="100.5" height="16" as="geometry" />
        </mxCell>
        <mxCell id="LizpNqH5XbW1a9Z3ppsu-15" value="WebSocket" style="text;html=1;strokeColor=#23445d;fillColor=#bac8d3;align=center;verticalAlign=middle;whiteSpace=wrap;rounded=1;shadow=0;labelBackgroundColor=none;labelBorderColor=none;spacingTop=1;" vertex="1" parent="1">
          <mxGeometry x="531.75" y="740" width="68" height="16" as="geometry" />
        </mxCell>
        <mxCell id="LizpNqH5XbW1a9Z3ppsu-16" value="MqueueMQ" style="text;html=1;strokeColor=#23445d;fillColor=#bac8d3;align=center;verticalAlign=middle;whiteSpace=wrap;rounded=1;shadow=0;labelBackgroundColor=none;labelBorderColor=none;spacingTop=1;" vertex="1" parent="1">
          <mxGeometry x="640" y="740" width="62.25" height="16" as="geometry" />
        </mxCell>
        <mxCell id="LizpNqH5XbW1a9Z3ppsu-17" value="ScheduleJob" style="text;html=1;strokeColor=#23445d;fillColor=#bac8d3;align=center;verticalAlign=middle;whiteSpace=wrap;rounded=1;shadow=0;labelBackgroundColor=none;labelBorderColor=none;spacingTop=1;" vertex="1" parent="1">
          <mxGeometry x="713.43" y="740" width="68" height="16" as="geometry" />
        </mxCell>
        <mxCell id="LizpNqH5XbW1a9Z3ppsu-18" value="WebSocket" style="text;html=1;strokeColor=#23445d;fillColor=#bac8d3;align=center;verticalAlign=middle;whiteSpace=wrap;rounded=1;shadow=0;labelBackgroundColor=none;labelBorderColor=none;spacingTop=1;" vertex="1" parent="1">
          <mxGeometry x="793.18" y="740" width="68" height="16" as="geometry" />
        </mxCell>
        <mxCell id="LizpNqH5XbW1a9Z3ppsu-19" value="ChainRPC" style="text;html=1;strokeColor=#BD7000;fillColor=#f0a30a;align=center;verticalAlign=middle;whiteSpace=wrap;rounded=1;shadow=0;labelBackgroundColor=none;labelBorderColor=none;fontColor=#FFFFFF;spacingTop=1;" vertex="1" parent="1">
          <mxGeometry x="640" y="655.5" width="62.25" height="16" as="geometry" />
        </mxCell>
        <mxCell id="LizpNqH5XbW1a9Z3ppsu-20" value="NodeRPC" style="text;html=1;strokeColor=#BD7000;fillColor=#f0a30a;align=center;verticalAlign=middle;whiteSpace=wrap;rounded=1;shadow=0;labelBackgroundColor=none;labelBorderColor=none;fontColor=#FFFFFF;spacingTop=1;" vertex="1" parent="1">
          <mxGeometry x="708.8199999999999" y="655" width="62.25" height="16" as="geometry" />
        </mxCell>
        <mxCell id="LizpNqH5XbW1a9Z3ppsu-21" value="MqueueRPC" style="text;html=1;strokeColor=#BD7000;fillColor=#f0a30a;align=center;verticalAlign=middle;whiteSpace=wrap;rounded=1;shadow=0;labelBackgroundColor=none;labelBorderColor=none;spacingTop=1;fontColor=#FFFFFF;" vertex="1" parent="1">
          <mxGeometry x="780.25" y="655" width="72" height="16" as="geometry" />
        </mxCell>
        <mxCell id="LizpNqH5XbW1a9Z3ppsu-22" value="ScheduleRPC" style="text;html=1;strokeColor=#BD7000;fillColor=#f0a30a;align=center;verticalAlign=middle;whiteSpace=wrap;rounded=1;shadow=0;labelBackgroundColor=none;labelBorderColor=none;spacingTop=1;fontColor=#FFFFFF;" vertex="1" parent="1">
          <mxGeometry x="640" y="681.5" width="72.25" height="16" as="geometry" />
        </mxCell>
        <mxCell id="LizpNqH5XbW1a9Z3ppsu-23" value="&lt;span style=&quot;color: rgb(255 , 255 , 255)&quot;&gt;StatisticsRPC&lt;/span&gt;" style="text;html=1;strokeColor=#BD7000;fillColor=#f0a30a;align=center;verticalAlign=middle;whiteSpace=wrap;rounded=1;shadow=0;labelBackgroundColor=none;labelBorderColor=none;spacingTop=1;fontColor=#000000;" vertex="1" parent="1">
          <mxGeometry x="720.0699999999999" y="681.5" width="72.25" height="16" as="geometry" />
        </mxCell>
        <mxCell id="LizpNqH5XbW1a9Z3ppsu-24" value="UserRPC" style="text;html=1;strokeColor=#BD7000;fillColor=#f0a30a;align=center;verticalAlign=middle;whiteSpace=wrap;rounded=1;shadow=0;labelBackgroundColor=none;labelBorderColor=none;spacingTop=1;fontColor=#FFFFFF;" vertex="1" parent="1">
          <mxGeometry x="802.25" y="681.5" width="68" height="16" as="geometry" />
        </mxCell>
        <mxCell id="LizpNqH5XbW1a9Z3ppsu-25" value="WalletRPC" style="text;html=1;strokeColor=#BD7000;fillColor=#f0a30a;align=center;verticalAlign=middle;whiteSpace=wrap;rounded=1;shadow=0;labelBackgroundColor=none;labelBorderColor=none;spacingTop=1;fontColor=#FFFFFF;" vertex="1" parent="1">
          <mxGeometry x="640" y="708.5" width="68" height="16" as="geometry" />
        </mxCell>
        <mxCell id="LizpNqH5XbW1a9Z3ppsu-26" value="WebSocketRPC" style="text;html=1;strokeColor=#BD7000;fillColor=#f0a30a;align=center;verticalAlign=middle;whiteSpace=wrap;rounded=1;shadow=0;labelBackgroundColor=none;labelBorderColor=none;spacingTop=1;fontColor=#FFFFFF;" vertex="1" parent="1">
          <mxGeometry x="721.75" y="708.5" width="100.5" height="16" as="geometry" />
        </mxCell>
        <mxCell id="LizpNqH5XbW1a9Z3ppsu-27" value="ChainAPI" style="text;html=1;strokeColor=#006EAF;fillColor=#1ba1e2;align=center;verticalAlign=middle;whiteSpace=wrap;rounded=1;shadow=0;labelBackgroundColor=none;labelBorderColor=none;fontColor=#ffffff;spacingTop=1;" vertex="1" parent="1">
          <mxGeometry x="642.88" y="602.5" width="62.25" height="16" as="geometry" />
        </mxCell>
        <mxCell id="LizpNqH5XbW1a9Z3ppsu-28" value="NodeAPI" style="text;html=1;strokeColor=#006EAF;fillColor=#1ba1e2;align=center;verticalAlign=middle;whiteSpace=wrap;rounded=1;shadow=0;labelBackgroundColor=none;labelBorderColor=none;fontColor=#ffffff;spacingTop=1;" vertex="1" parent="1">
          <mxGeometry x="728.29" y="604" width="62.25" height="16" as="geometry" />
        </mxCell>
        <mxCell id="LizpNqH5XbW1a9Z3ppsu-29" value="StatisticsAPI" style="text;html=1;strokeColor=#006EAF;fillColor=#1ba1e2;align=center;verticalAlign=middle;whiteSpace=wrap;rounded=1;shadow=0;labelBackgroundColor=none;labelBorderColor=none;spacingTop=1;fontColor=#ffffff;" vertex="1" parent="1">
          <mxGeometry x="641.48" y="630" width="68" height="16" as="geometry" />
        </mxCell>
        <mxCell id="LizpNqH5XbW1a9Z3ppsu-30" value="UserAPI" style="text;html=1;strokeColor=#006EAF;fillColor=#1ba1e2;align=center;verticalAlign=middle;whiteSpace=wrap;rounded=1;shadow=0;labelBackgroundColor=none;labelBorderColor=none;spacingTop=1;fontColor=#ffffff;" vertex="1" parent="1">
          <mxGeometry x="725.41" y="630" width="68" height="16" as="geometry" />
        </mxCell>
        <mxCell id="LizpNqH5XbW1a9Z3ppsu-31" value="WalletAPI" style="text;html=1;strokeColor=#006EAF;fillColor=#1ba1e2;align=center;verticalAlign=middle;whiteSpace=wrap;rounded=1;shadow=0;labelBackgroundColor=none;labelBorderColor=none;spacingTop=1;fontColor=#ffffff;" vertex="1" parent="1">
          <mxGeometry x="802.25" y="604" width="68" height="16" as="geometry" />
        </mxCell>
        <mxCell id="LizpNqH5XbW1a9Z3ppsu-32" value="PC" style="text;html=1;strokeColor=#82b366;fillColor=#d5e8d4;align=center;verticalAlign=middle;whiteSpace=wrap;rounded=1;shadow=0;labelBackgroundColor=none;labelBorderColor=none;spacingTop=1;" vertex="1" parent="1">
          <mxGeometry x="642.88" y="560" width="40" height="16" as="geometry" />
        </mxCell>
        <mxCell id="LizpNqH5XbW1a9Z3ppsu-33" value="H5" style="text;html=1;strokeColor=#82b366;fillColor=#d5e8d4;align=center;verticalAlign=middle;whiteSpace=wrap;rounded=1;shadow=0;labelBackgroundColor=none;labelBorderColor=none;spacingTop=1;" vertex="1" parent="1">
          <mxGeometry x="688.29" y="560" width="40" height="16" as="geometry" />
        </mxCell>
        <mxCell id="LizpNqH5XbW1a9Z3ppsu-35" style="edgeStyle=orthogonalEdgeStyle;rounded=0;orthogonalLoop=1;jettySize=auto;html=1;entryX=0.51;entryY=0;entryDx=0;entryDy=0;entryPerimeter=0;fontColor=#000000;" edge="1" parent="1" source="LizpNqH5XbW1a9Z3ppsu-39" target="LizpNqH5XbW1a9Z3ppsu-38">
          <mxGeometry relative="1" as="geometry" />
        </mxCell>
        <mxCell id="LizpNqH5XbW1a9Z3ppsu-36" value="HTTP" style="edgeLabel;html=1;align=center;verticalAlign=middle;resizable=0;points=[];fontColor=#000000;fontStyle=1" vertex="1" connectable="0" parent="LizpNqH5XbW1a9Z3ppsu-35">
          <mxGeometry x="0.1466" relative="1" as="geometry">
            <mxPoint as="offset" />
          </mxGeometry>
        </mxCell>
        <mxCell id="LizpNqH5XbW1a9Z3ppsu-37" value="&lt;b&gt;接口域名待定&lt;/b&gt;" style="text;html=1;strokeColor=default;fillColor=#000000;align=center;verticalAlign=middle;whiteSpace=wrap;rounded=1;rotation=0;labelBackgroundColor=none;fontColor=#FFFFFF;shadow=0;labelBorderColor=none;" vertex="1" parent="1">
          <mxGeometry x="1036.25" y="47.38" width="90" height="20" as="geometry" />
        </mxCell>
        <mxCell id="LizpNqH5XbW1a9Z3ppsu-46" style="edgeStyle=orthogonalEdgeStyle;rounded=0;orthogonalLoop=1;jettySize=auto;html=1;exitX=0.51;exitY=1;exitDx=0;exitDy=0;exitPerimeter=0;entryX=1;entryY=0.5;entryDx=0;entryDy=0;entryPerimeter=0;fontColor=#FFFFFF;dashed=1;" edge="1" parent="1" source="LizpNqH5XbW1a9Z3ppsu-38" target="JEiJStZFtpuKIrxnZZQP-146">
          <mxGeometry relative="1" as="geometry" />
        </mxCell>
        <mxCell id="LizpNqH5XbW1a9Z3ppsu-38" value="负载均衡" style="verticalLabelPosition=bottom;html=1;verticalAlign=top;strokeColor=none;fillColor=#007FFF;shape=mxgraph.azure.azure_active_directory;rotation=0;labelBackgroundColor=default;fontStyle=1" vertex="1" parent="1">
          <mxGeometry x="1018.67" y="234" width="52.65" height="54" as="geometry" />
        </mxCell>
        <mxCell id="LizpNqH5XbW1a9Z3ppsu-39" value="&lt;b&gt;WAF&lt;/b&gt;" style="aspect=fixed;html=1;points=[];align=center;image;fontSize=12;image=img/lib/azure2/networking/Web_Application_Firewall_Policies_WAF.svg;rounded=1;shadow=0;labelBackgroundColor=default;labelBorderColor=none;fontColor=#000000;strokeColor=#666666;strokeWidth=1;fillColor=#007FFF;" vertex="1" parent="1">
          <mxGeometry x="1025" y="79" width="40" height="40" as="geometry" />
        </mxCell>
        <mxCell id="LizpNqH5XbW1a9Z3ppsu-42" value="" style="fontColor=#0066CC;verticalAlign=top;verticalLabelPosition=bottom;labelPosition=center;align=center;html=1;fillColor=#007FFF;strokeColor=#6881B3;gradientColor=none;gradientDirection=north;strokeWidth=2;shape=mxgraph.networks.pc;" vertex="1" parent="1">
          <mxGeometry x="890.25" y="-47.38" width="45" height="31" as="geometry" />
        </mxCell>
        <mxCell id="LizpNqH5XbW1a9Z3ppsu-44" value="&lt;b&gt;PC 运营&lt;/b&gt;" style="text;html=1;strokeColor=default;fillColor=#000000;align=center;verticalAlign=middle;whiteSpace=wrap;rounded=1;rotation=0;labelBackgroundColor=none;fontColor=#FFFFFF;shadow=0;labelBorderColor=none;" vertex="1" parent="1">
          <mxGeometry x="870.25" y="-79.38" width="65" height="20" as="geometry" />
        </mxCell>
        <mxCell id="LizpNqH5XbW1a9Z3ppsu-45" style="edgeStyle=none;rounded=0;html=1;exitX=0.75;exitY=0;startArrow=blockThin;startFill=1;endArrow=blockThin;endFill=1;jettySize=auto;orthogonalLoop=1;strokeColor=#3399FF;strokeWidth=2;fontColor=#00BEF2;" edge="1" parent="1" source="LizpNqH5XbW1a9Z3ppsu-44" target="LizpNqH5XbW1a9Z3ppsu-44">
          <mxGeometry relative="1" as="geometry" />
        </mxCell>
        <mxCell id="LizpNqH5XbW1a9Z3ppsu-47" value="&lt;b&gt;静态域名待定&lt;/b&gt;" style="text;html=1;strokeColor=default;fillColor=#000000;align=center;verticalAlign=middle;whiteSpace=wrap;rounded=1;rotation=0;labelBackgroundColor=none;fontColor=#FFFFFF;shadow=0;labelBorderColor=none;" vertex="1" parent="1">
          <mxGeometry x="793.41" y="47.38" width="90" height="20" as="geometry" />
        </mxCell>
        <mxCell id="LizpNqH5XbW1a9Z3ppsu-54" style="edgeStyle=orthogonalEdgeStyle;rounded=0;orthogonalLoop=1;jettySize=auto;html=1;exitX=0.51;exitY=1;exitDx=0;exitDy=0;exitPerimeter=0;entryX=1;entryY=0.5;entryDx=0;entryDy=0;entryPerimeter=0;fontColor=#000000;dashed=1;" edge="1" parent="1" source="LizpNqH5XbW1a9Z3ppsu-48" target="JEiJStZFtpuKIrxnZZQP-146">
          <mxGeometry relative="1" as="geometry" />
        </mxCell>
        <mxCell id="LizpNqH5XbW1a9Z3ppsu-48" value="负载均衡" style="verticalLabelPosition=bottom;html=1;verticalAlign=top;strokeColor=none;fillColor=#007FFF;shape=mxgraph.azure.azure_active_directory;rotation=0;labelBackgroundColor=default;fontStyle=1" vertex="1" parent="1">
          <mxGeometry x="830.0699999999999" y="222" width="51" height="54" as="geometry" />
        </mxCell>
        <mxCell id="LizpNqH5XbW1a9Z3ppsu-49" value="HTTP" style="edgeStyle=orthogonalEdgeStyle;rounded=0;orthogonalLoop=1;jettySize=auto;html=1;exitX=0.5;exitY=0.84;exitDx=0;exitDy=0;exitPerimeter=0;entryX=0.51;entryY=0;entryDx=0;entryDy=0;entryPerimeter=0;fontColor=#000000;fontStyle=1" edge="1" parent="1" source="LizpNqH5XbW1a9Z3ppsu-50" target="LizpNqH5XbW1a9Z3ppsu-48">
          <mxGeometry x="0.5055" relative="1" as="geometry">
            <Array as="points">
              <mxPoint x="857.25" y="124.86" />
            </Array>
            <mxPoint as="offset" />
          </mxGeometry>
        </mxCell>
        <mxCell id="LizpNqH5XbW1a9Z3ppsu-55" value="&lt;b&gt;www.ewom.io&lt;/b&gt;" style="text;html=1;strokeColor=default;fillColor=#000000;align=center;verticalAlign=middle;whiteSpace=wrap;rounded=1;rotation=0;labelBackgroundColor=none;fontColor=#FFFFFF;shadow=0;labelBorderColor=none;" vertex="1" parent="1">
          <mxGeometry x="377.25" y="89" width="82.25" height="20" as="geometry" />
        </mxCell>
        <mxCell id="LizpNqH5XbW1a9Z3ppsu-59" value="&lt;b&gt;wom.io&lt;/b&gt;" style="text;html=1;strokeColor=default;fillColor=#000000;align=center;verticalAlign=middle;whiteSpace=wrap;rounded=1;rotation=0;labelBackgroundColor=none;fontColor=#FFFFFF;shadow=0;labelBorderColor=none;" vertex="1" parent="1">
          <mxGeometry x="140" y="59" width="82.25" height="20" as="geometry" />
        </mxCell>
        <mxCell id="LizpNqH5XbW1a9Z3ppsu-60" value="&lt;b&gt;ewom.io&lt;/b&gt;" style="text;html=1;strokeColor=default;fillColor=#000000;align=center;verticalAlign=middle;whiteSpace=wrap;rounded=1;rotation=0;labelBackgroundColor=none;fontColor=#FFFFFF;shadow=0;labelBorderColor=none;" vertex="1" parent="1">
          <mxGeometry x="140" y="95.11" width="82.25" height="20" as="geometry" />
        </mxCell>
        <mxCell id="LizpNqH5XbW1a9Z3ppsu-65" style="edgeStyle=orthogonalEdgeStyle;rounded=0;orthogonalLoop=1;jettySize=auto;html=1;exitX=0.5;exitY=1;exitDx=0;exitDy=0;exitPerimeter=0;fontColor=#000000;" edge="1" parent="1" source="LizpNqH5XbW1a9Z3ppsu-61" target="LizpNqH5XbW1a9Z3ppsu-63">
          <mxGeometry relative="1" as="geometry" />
        </mxCell>
        <mxCell id="LizpNqH5XbW1a9Z3ppsu-61" value="EC2" style="outlineConnect=0;dashed=0;verticalLabelPosition=bottom;verticalAlign=top;align=center;html=1;shape=mxgraph.aws3.ec2;fillColor=#007FFF;gradientColor=none;rounded=1;shadow=0;labelBackgroundColor=default;labelBorderColor=none;fontColor=#000000;strokeColor=#666666;strokeWidth=1;fontStyle=1" vertex="1" parent="1">
          <mxGeometry x="222.25000000000006" y="131" width="48.53" height="59" as="geometry" />
        </mxCell>
        <mxCell id="LizpNqH5XbW1a9Z3ppsu-70" style="edgeStyle=orthogonalEdgeStyle;rounded=0;orthogonalLoop=1;jettySize=auto;html=1;entryX=0;entryY=0.5;entryDx=0;entryDy=0;dashed=1;fontColor=#000000;" edge="1" parent="1" source="LizpNqH5XbW1a9Z3ppsu-63" target="JEiJStZFtpuKIrxnZZQP-101">
          <mxGeometry relative="1" as="geometry" />
        </mxCell>
        <mxCell id="LizpNqH5XbW1a9Z3ppsu-63" value="Nginx" style="pointerEvents=1;shadow=0;dashed=0;html=1;strokeColor=none;fillColor=#007FFF;labelPosition=center;verticalLabelPosition=bottom;verticalAlign=top;align=center;outlineConnect=0;shape=mxgraph.veeam.2d.proxy;fontColor=#000000;fontStyle=1" vertex="1" parent="1">
          <mxGeometry x="224.12" y="235.33999999999997" width="44.8" height="44.8" as="geometry" />
        </mxCell>
        <mxCell id="LizpNqH5XbW1a9Z3ppsu-68" value="&lt;b&gt;重定向&lt;/b&gt;" style="text;html=1;strokeColor=none;fillColor=none;align=center;verticalAlign=middle;whiteSpace=wrap;rounded=0;rotation=-90;labelBackgroundColor=default;" vertex="1" parent="1">
          <mxGeometry x="297.94" y="157.07" width="48.63" height="20" as="geometry" />
        </mxCell>
        <mxCell id="LizpNqH5XbW1a9Z3ppsu-72" value="授权管理" style="text;html=1;strokeColor=#BD7000;fillColor=#f0a30a;align=center;verticalAlign=middle;whiteSpace=wrap;rounded=1;shadow=0;labelBackgroundColor=none;labelBorderColor=none;spacingTop=1;fontColor=#FFFFFF;" vertex="1" parent="1">
          <mxGeometry x="210" y="641" width="71.18" height="16" as="geometry" />
        </mxCell>
        <mxCell id="LizpNqH5XbW1a9Z3ppsu-73" value="操作日志" style="text;html=1;strokeColor=#BD7000;fillColor=#f0a30a;align=center;verticalAlign=middle;whiteSpace=wrap;rounded=1;shadow=0;labelBackgroundColor=none;labelBorderColor=none;spacingTop=1;fontColor=#FFFFFF;" vertex="1" parent="1">
          <mxGeometry x="118.82" y="611" width="71.18" height="16" as="geometry" />
        </mxCell>
        <mxCell id="LizpNqH5XbW1a9Z3ppsu-74" value="录屏记录" style="text;html=1;strokeColor=#BD7000;fillColor=#f0a30a;align=center;verticalAlign=middle;whiteSpace=wrap;rounded=1;shadow=0;labelBackgroundColor=none;labelBorderColor=none;spacingTop=1;fontColor=#FFFFFF;" vertex="1" parent="1">
          <mxGeometry x="120" y="641" width="71.18" height="16" as="geometry" />
        </mxCell>
        <mxCell id="LizpNqH5XbW1a9Z3ppsu-75" value="跳板机应用" style="text;html=1;strokeColor=#006EAF;fillColor=#1ba1e2;align=center;verticalAlign=middle;whiteSpace=wrap;rounded=1;shadow=0;labelBackgroundColor=none;labelBorderColor=none;spacingTop=1;fontColor=#ffffff;" vertex="1" parent="1">
          <mxGeometry x="120" y="576" width="71.18" height="16" as="geometry" />
        </mxCell>
        <mxCell id="LizpNqH5XbW1a9Z3ppsu-77" value="" style="edgeStyle=orthogonalEdgeStyle;rounded=0;orthogonalLoop=1;jettySize=auto;html=1;exitX=0.5;exitY=0;exitDx=0;exitDy=0;fontColor=#000000;fontStyle=1;endArrow=none;" edge="1" parent="1" source="LizpNqH5XbW1a9Z3ppsu-41" target="LizpNqH5XbW1a9Z3ppsu-76">
          <mxGeometry relative="1" as="geometry">
            <mxPoint x="945.375" y="-1.3150000000000546" as="sourcePoint" />
            <mxPoint x="1045" y="79" as="targetPoint" />
            <Array as="points" />
          </mxGeometry>
        </mxCell>
        <mxCell id="LizpNqH5XbW1a9Z3ppsu-78" style="edgeStyle=orthogonalEdgeStyle;rounded=0;orthogonalLoop=1;jettySize=auto;html=1;entryX=1;entryY=0.5;entryDx=0;entryDy=0;entryPerimeter=0;dashed=1;fontColor=#FFFFFF;" edge="1" parent="1" source="LizpNqH5XbW1a9Z3ppsu-76" target="JEiJStZFtpuKIrxnZZQP-146">
          <mxGeometry relative="1" as="geometry">
            <Array as="points">
              <mxPoint x="732" y="368" />
            </Array>
          </mxGeometry>
        </mxCell>
        <mxCell id="LizpNqH5XbW1a9Z3ppsu-76" value="" style="html=1;strokeWidth=1;shadow=0;dashed=0;shape=mxgraph.ios7.misc.vpn;fillColor=#007AFF;strokeColor=none;buttonText=;strokeColor2=#222222;fontColor=#222222;fontSize=8;verticalLabelPosition=bottom;verticalAlign=top;align=center;sketch=0;labelBackgroundColor=default;" vertex="1" parent="1">
          <mxGeometry x="717" y="-62.16" width="36.94" height="36.94" as="geometry" />
        </mxCell>
        <mxCell id="LizpNqH5XbW1a9Z3ppsu-52" value="HTTPS" style="edgeStyle=orthogonalEdgeStyle;rounded=0;orthogonalLoop=1;jettySize=auto;html=1;exitX=1;exitY=0.5;exitDx=0;exitDy=0;fontColor=#000000;fontStyle=1;startArrow=none;exitPerimeter=0;dashed=1;" edge="1" parent="1" source="JEiJStZFtpuKIrxnZZQP-146" target="LizpNqH5XbW1a9Z3ppsu-39">
          <mxGeometry x="0.2531" relative="1" as="geometry">
            <Array as="points">
              <mxPoint x="750" y="368" />
              <mxPoint x="750" y="19" />
              <mxPoint x="1045" y="19" />
            </Array>
            <mxPoint as="offset" />
          </mxGeometry>
        </mxCell>
      </root>
    </mxGraphModel>
  </diagram>
</mxfile>
